<svg width="197" height="83" viewBox="0 0 197 83" fill="none" xmlns="http://www.w3.org/2000/svg">
<path d="M8.72 32.576H43.376V40.832H8.72V32.576ZM9.68 68H0.0800004V0.799995H47.504V9.152H9.68V68ZM47.7477 68L78.1798 0.799995H87.6838L118.212 68H108.132L80.9638 6.17599H84.8038L57.6358 68H47.7477ZM60.7078 51.2L63.2998 43.52H101.124L103.908 51.2H60.7078ZM157.635 68.768C152.515 68.768 147.747 67.904 143.331 66.176C138.979 64.448 135.203 62.048 132.003 58.976C128.803 55.84 126.307 52.192 124.515 48.032C122.723 43.872 121.827 39.328 121.827 34.4C121.827 29.472 122.723 24.928 124.515 20.768C126.307 16.608 128.803 12.992 132.003 9.92C135.203 6.784 138.979 4.352 143.331 2.62399C147.683 0.895998 152.451 0.0319996 157.635 0.0319996C162.755 0.0319996 167.459 0.895998 171.747 2.62399C176.099 4.288 179.875 6.688 183.075 9.824C186.339 12.896 188.835 16.512 190.563 20.672C192.355 24.832 193.251 29.408 193.251 34.4C193.251 39.392 192.355 43.968 190.563 48.128C188.835 52.288 186.339 55.936 183.075 59.072C179.875 62.144 176.099 64.544 171.747 66.272C167.459 67.936 162.755 68.768 157.635 68.768ZM179.619 82.016C177.379 82.016 175.235 81.728 173.187 81.152C171.139 80.64 169.091 79.776 167.043 78.56C164.995 77.408 162.883 75.872 160.707 73.952C158.531 72.096 156.163 69.792 153.603 67.04L163.875 64.352C165.795 66.72 167.619 68.64 169.347 70.112C171.139 71.648 172.899 72.736 174.627 73.376C176.355 74.08 178.051 74.432 179.715 74.432C184.515 74.432 188.611 72.512 192.003 68.672L196.515 74.144C192.163 79.392 186.531 82.016 179.619 82.016ZM157.635 60.224C161.347 60.224 164.771 59.584 167.907 58.304C171.107 57.024 173.859 55.2 176.163 52.832C178.531 50.464 180.355 47.712 181.635 44.576C182.979 41.44 183.651 38.048 183.651 34.4C183.651 30.688 182.979 27.264 181.635 24.128C180.355 20.992 178.531 18.272 176.163 15.968C173.859 13.6 171.107 11.776 167.907 10.496C164.771 9.216 161.347 8.576 157.635 8.576C153.859 8.576 150.371 9.216 147.171 10.496C144.035 11.776 141.283 13.6 138.915 15.968C136.547 18.272 134.691 20.992 133.347 24.128C132.067 27.264 131.427 30.688 131.427 34.4C131.427 38.048 132.067 41.44 133.347 44.576C134.691 47.712 136.547 50.464 138.915 52.832C141.283 55.2 144.035 57.024 147.171 58.304C150.371 59.584 153.859 60.224 157.635 60.224Z" fill="black"/>
</svg>
